<svg width="1144" height="906" viewBox="0 0 1144 906" fill="none" xmlns="http://www.w3.org/2000/svg">
<path d="M17.1277 844.379L10.8699 847.143V853.984V883.54V893.949L21.2782 894.04C209.338 895.683 490.1 896.176 721.175 892.315C836.684 890.385 939.926 887.365 1013 882.844C1049.46 880.588 1078.74 877.94 1098.35 874.809C1107.98 873.27 1116.06 871.502 1121.58 869.302C1124.08 868.304 1127.63 866.634 1130.17 863.655C1131.6 861.968 1133.07 859.436 1133.29 856.144C1133.51 852.797 1132.36 850.01 1131.01 848.035C1126.56 841.571 1118.63 834.662 1109.32 827.755C1099.73 820.647 1087.69 812.842 1074.11 804.687C1046.92 788.368 1012.94 770.299 978.651 753.152C910.411 719.032 839.406 687.811 817.435 681.349C812.702 679.957 807.369 675.513 801.943 666.657C796.632 657.987 792.068 646.432 788.289 633.39C781.736 610.771 777.967 585.177 776.304 565.997C781.917 563.338 786.884 559.186 791.16 554.663C798.014 547.413 804.358 537.869 810.111 527.483C821.644 506.659 831.734 480.724 839.212 458.29C845.982 437.979 844.335 410.76 840.352 386.403C836.62 363.583 830.544 341.64 825.622 327.019C847.376 266.303 834.464 198.554 799.373 142.157C763.548 84.5814 704.03 37.7907 632.118 21.0968C561.56 4.71736 511.312 8.91685 468.607 25.5427C430.642 40.3228 399.242 64.7938 365.818 90.8428C362.187 93.6723 358.533 96.5205 354.843 99.3768C337.409 112.874 325.612 132.941 317.704 155.481C309.776 178.077 305.489 203.909 303.57 229.937C299.874 280.066 304.864 332.357 310.847 366.799C291.088 402.288 296.622 446.357 308.445 484.552C320.813 524.509 341.019 561.073 352.119 580.807C361.35 597.217 361.869 621.229 356.569 644.783C353.97 656.332 350.081 667.245 345.616 676.318C341.075 685.542 336.257 692.219 332.128 695.89C330.944 696.942 326.94 699.542 319.329 703.741C312.115 707.72 302.552 712.663 291.147 718.348C268.353 729.709 238.528 743.87 206.108 758.932C141.287 789.047 66.3513 822.639 17.1277 844.379Z" stroke="white" stroke-width="21"/>
</svg>
