<svg width="1504" height="845" viewBox="0 0 1504 845" fill="none" xmlns="http://www.w3.org/2000/svg">
<path d="M0.204163 834.096H178.379C276.901 790.582 481.37 709.501 499.104 693.738C521.271 674.033 543.439 605.068 521.271 565.659C499.104 526.25 442.454 422.802 481.862 358.763C469.547 291.439 460.188 144.97 521.271 97.6794C597.626 38.5662 651.813 -10.6948 789.744 21.3249C927.675 53.3445 989.251 139.977 958.083 310.776C1014.45 329.564 1001.07 409.502 989.251 444.97C974.473 489.305 949.842 545.955 925.212 548.418C927.675 588.648 940.975 671.57 974.473 681.423C1146.12 731.906 1262.37 821.769 1286.01 831.219H1561.53" stroke="white" stroke-width="21"/>
</svg>
