<svg width="1103" height="865" viewBox="0 0 1103 865" fill="none" xmlns="http://www.w3.org/2000/svg">
<path d="M318.405 683.235C300.671 698.998 99.1938 789.967 0.671753 833.481V863.037C376.698 866.321 1123.33 865.008 1101.66 833.481C1074.56 794.072 835.646 683.235 793.774 670.919C760.277 661.067 746.976 578.144 744.513 537.914C769.144 535.451 793.774 478.801 808.552 434.466C820.375 398.998 803.626 334.302 793.774 306.388C838.109 190.624 746.976 42.8413 609.045 10.8216C471.115 -21.1981 416.927 28.063 340.573 87.1762C279.489 134.467 288.849 280.936 301.164 348.26C261.755 412.299 318.405 515.747 340.573 555.156C362.74 594.565 340.573 663.53 318.405 683.235Z" fill="#FF0000"/>
</svg>
