<svg width="2464" height="910" viewBox="0 0 2464 910" fill="none" xmlns="http://www.w3.org/2000/svg">
<path fill-rule="evenodd" clip-rule="evenodd" d="M2643.7 0L-179.701 1.52588e-05V909.264H966.903C860.002 909.263 758.909 908.762 675.884 908.037V878.481C774.406 834.967 975.883 743.998 993.617 728.235C1015.78 708.53 1037.95 639.565 1015.78 600.156C993.617 560.747 936.967 457.299 976.376 393.26C964.061 325.936 954.701 179.467 1015.78 132.176C1019.46 129.329 1023.09 126.505 1026.67 123.712C1097.55 68.5064 1152.97 25.3441 1284.26 55.8216C1422.19 87.8413 1513.32 235.624 1468.99 351.388C1478.84 379.302 1495.59 443.998 1483.76 479.466C1468.99 523.801 1444.36 580.451 1419.73 582.914C1422.19 623.144 1435.49 706.067 1468.99 715.919C1510.86 728.235 1749.77 839.072 1776.87 878.481C1793.75 903.031 1344.72 909.261 967.605 909.264H2643.7V0Z" fill="#D9D9D9"/>
</svg>
