<svg width="1080" height="863" viewBox="0 0 1080 863" fill="none" xmlns="http://www.w3.org/2000/svg">
<path d="M103.398 819.345L14.3259 863.008L0.353699 730.273L103.398 819.345Z" fill="white"/>
<path d="M227.401 759.964L143.568 794.894L126.103 709.315L227.401 759.964Z" fill="white"/>
<path d="M335.685 662.159L292.022 735.513L227.401 639.454L335.685 662.159Z" fill="white"/>
<path d="M279.797 527.677C286.572 545.92 302.775 580.495 318.125 587.535L323.46 588.805C321.704 588.805 319.921 588.358 318.125 587.535L213.429 562.607L279.797 527.677Z" fill="white"/>
<path d="M299.228 379.465C282.401 383.559 279.231 432.936 279.797 457.816L190.724 396.688L299.228 379.465C299.725 379.344 300.234 379.263 300.755 379.223L299.228 379.465Z" fill="white"/>
<path d="M300.755 223.783L292.022 314.602L168.019 223.783H300.755Z" fill="white"/>
<path d="M367.123 106.766L323.46 150.429L292.022 64.8495L367.123 106.766Z" fill="white"/>
<path d="M463.181 64.8495L417.772 75.3286V28.1726L463.181 64.8495Z" fill="white"/>
<path d="M576.705 56.117H519.07L566.226 0.228363L576.705 56.117Z" fill="white"/>
<path d="M714.68 115.499L643.072 75.3286L735.638 28.1726L714.68 115.499Z" fill="white"/>
<path d="M770.568 223.783C767.774 207.016 754.267 167.894 747.864 150.429H849.162L770.568 223.783Z" fill="white"/>
<path d="M770.568 361.758V290.15L868.373 314.602L770.568 361.758Z" fill="white"/>
<path d="M786.287 484.014L795.02 417.646L892.825 457.816L786.287 484.014Z" fill="white"/>
<path d="M714.68 574.833L868.373 588.805L714.68 615.003V574.833Z" fill="white"/>
<path d="M770.568 735.513C751.007 735.513 739.131 698.254 735.638 679.624L892.825 670.891L770.568 735.513Z" fill="white"/>
<path d="M908.543 794.894C879.202 794.894 845.086 771.607 831.696 759.964L973.164 735.513L908.543 794.894Z" fill="white"/>
<path d="M1050.01 863.008C1038.83 856.022 994.123 829.825 973.164 817.599L1079.7 786.162L1050.01 863.008Z" fill="white"/>
</svg>
